<mxfile host="app.diagrams.net" modified="2023-09-02T12:37:33.529Z" agent="Mozilla/5.0 (Windows NT 10.0; Win64; x64) AppleWebKit/537.36 (KHTML, like Gecko) Chrome/116.0.0.0 Safari/537.36" etag="6DhsoNoFL7Zd6wIlVrGf" version="21.7.1" type="github">
  <diagram name="Page-1" id="LvjpsSYiFBj9zBLGzPmu">
    <mxGraphModel dx="989" dy="523" grid="1" gridSize="10" guides="1" tooltips="1" connect="1" arrows="1" fold="1" page="1" pageScale="1" pageWidth="827" pageHeight="1169" math="0" shadow="0">
      <root>
        <mxCell id="0" />
        <mxCell id="1" parent="0" />
        <mxCell id="Urzz401wbMbn4Pt66lUd-5" style="edgeStyle=orthogonalEdgeStyle;rounded=0;orthogonalLoop=1;jettySize=auto;html=1;entryX=0;entryY=0.5;entryDx=0;entryDy=0;" edge="1" parent="1" source="Urzz401wbMbn4Pt66lUd-2" target="Urzz401wbMbn4Pt66lUd-4">
          <mxGeometry relative="1" as="geometry" />
        </mxCell>
        <mxCell id="Urzz401wbMbn4Pt66lUd-2" value="User" style="shape=umlActor;verticalLabelPosition=bottom;verticalAlign=top;html=1;outlineConnect=0;" vertex="1" parent="1">
          <mxGeometry x="21" y="290" width="30" height="60" as="geometry" />
        </mxCell>
        <mxCell id="Urzz401wbMbn4Pt66lUd-9" style="edgeStyle=orthogonalEdgeStyle;rounded=0;orthogonalLoop=1;jettySize=auto;html=1;entryX=0;entryY=0.5;entryDx=0;entryDy=0;" edge="1" parent="1" source="Urzz401wbMbn4Pt66lUd-4" target="Urzz401wbMbn4Pt66lUd-7">
          <mxGeometry relative="1" as="geometry" />
        </mxCell>
        <mxCell id="Urzz401wbMbn4Pt66lUd-10" style="edgeStyle=orthogonalEdgeStyle;rounded=0;orthogonalLoop=1;jettySize=auto;html=1;entryX=0;entryY=0.5;entryDx=0;entryDy=0;" edge="1" parent="1" source="Urzz401wbMbn4Pt66lUd-4" target="Urzz401wbMbn4Pt66lUd-6">
          <mxGeometry relative="1" as="geometry" />
        </mxCell>
        <mxCell id="Urzz401wbMbn4Pt66lUd-4" value="Launch the app" style="ellipse;whiteSpace=wrap;html=1;" vertex="1" parent="1">
          <mxGeometry x="81" y="300" width="100" height="40" as="geometry" />
        </mxCell>
        <mxCell id="Urzz401wbMbn4Pt66lUd-12" style="edgeStyle=orthogonalEdgeStyle;rounded=0;orthogonalLoop=1;jettySize=auto;html=1;entryX=0;entryY=0.5;entryDx=0;entryDy=0;" edge="1" parent="1" source="Urzz401wbMbn4Pt66lUd-6" target="Urzz401wbMbn4Pt66lUd-11">
          <mxGeometry relative="1" as="geometry" />
        </mxCell>
        <mxCell id="Urzz401wbMbn4Pt66lUd-6" value="Take picture of food" style="ellipse;whiteSpace=wrap;html=1;" vertex="1" parent="1">
          <mxGeometry x="221" y="239" width="120" height="40" as="geometry" />
        </mxCell>
        <mxCell id="Urzz401wbMbn4Pt66lUd-7" value="See history of calories/pictures" style="ellipse;whiteSpace=wrap;html=1;" vertex="1" parent="1">
          <mxGeometry x="221" y="360" width="120" height="50" as="geometry" />
        </mxCell>
        <mxCell id="Urzz401wbMbn4Pt66lUd-16" style="edgeStyle=orthogonalEdgeStyle;rounded=0;orthogonalLoop=1;jettySize=auto;html=1;entryX=0;entryY=0.5;entryDx=0;entryDy=0;" edge="1" parent="1" source="Urzz401wbMbn4Pt66lUd-11" target="Urzz401wbMbn4Pt66lUd-13">
          <mxGeometry relative="1" as="geometry">
            <mxPoint x="460.5" y="179" as="targetPoint" />
            <Array as="points">
              <mxPoint x="461" y="174" />
            </Array>
          </mxGeometry>
        </mxCell>
        <mxCell id="Urzz401wbMbn4Pt66lUd-19" style="edgeStyle=orthogonalEdgeStyle;rounded=0;orthogonalLoop=1;jettySize=auto;html=1;entryX=0;entryY=0.5;entryDx=0;entryDy=0;" edge="1" parent="1" source="Urzz401wbMbn4Pt66lUd-11" target="Urzz401wbMbn4Pt66lUd-17">
          <mxGeometry relative="1" as="geometry" />
        </mxCell>
        <mxCell id="Urzz401wbMbn4Pt66lUd-11" value="See detected food name &lt;br&gt;and its metadata" style="ellipse;whiteSpace=wrap;html=1;" vertex="1" parent="1">
          <mxGeometry x="371" y="239" width="179" height="40" as="geometry" />
        </mxCell>
        <mxCell id="Urzz401wbMbn4Pt66lUd-18" style="edgeStyle=orthogonalEdgeStyle;rounded=0;orthogonalLoop=1;jettySize=auto;html=1;entryX=0.5;entryY=0;entryDx=0;entryDy=0;" edge="1" parent="1" source="Urzz401wbMbn4Pt66lUd-13" target="Urzz401wbMbn4Pt66lUd-17">
          <mxGeometry relative="1" as="geometry" />
        </mxCell>
        <mxCell id="Urzz401wbMbn4Pt66lUd-13" value="Manually food name and/or metadata" style="ellipse;whiteSpace=wrap;html=1;" vertex="1" parent="1">
          <mxGeometry x="591" y="139" width="140" height="70" as="geometry" />
        </mxCell>
        <mxCell id="Urzz401wbMbn4Pt66lUd-17" value="Log food + metadata consumed today" style="ellipse;whiteSpace=wrap;html=1;" vertex="1" parent="1">
          <mxGeometry x="581" y="229" width="160" height="60" as="geometry" />
        </mxCell>
        <mxCell id="Urzz401wbMbn4Pt66lUd-20" value="" style="ellipse;whiteSpace=wrap;html=1;" vertex="1" parent="1">
          <mxGeometry x="461" y="360" width="120" height="80" as="geometry" />
        </mxCell>
      </root>
    </mxGraphModel>
  </diagram>
</mxfile>
